<?xml version="1.0" encoding="UTF-8"?>
<svg version="1.1" xmlns="http://www.w3.org/2000/svg" width="1280" height="1280">
<path d="M0 0 C422.4 0 844.8 0 1280 0 C1280 422.4 1280 844.8 1280 1280 C857.6 1280 435.2 1280 0 1280 C0 857.6 0 435.2 0 0 Z " fill="#C6C2B9" transform="translate(0,0)"/>
<path d="M0 0 C5.23219836 2.51920662 9.38537029 6.77074058 12 12 C12.58194302 18.8885813 11.87995308 23.78474881 7.5 29.25 C5 32 5 32 3 33 C2.67 124.74 2.34 216.48 2 311 C88.79 311 175.58 311 265 311 C265 226.52 265 142.04 265 55 C263.68 54.34 262.36 53.68 261 53 C255.95835721 47.38216947 255.47837409 42.68786242 255.51953125 35.3125 C256.28409672 30.04134946 258.89561195 27.20951099 263 24 C266.93189584 21.64086249 270.46758591 21.60927465 275 22 C281.04547445 23.80303624 284.52959208 26.87590777 288 32 C289.45016555 36.35049665 289.51070107 40.45334185 289 45 C287.19155769 48.61688462 285.84346152 50.48467663 282.39514327 52.59146982 C279.34260663 55.66106767 279.39933443 57.30338549 279.33146787 61.49457744 C279.342602 62.37465621 279.35373614 63.25473498 279.36520767 64.16148281 C279.35734128 65.10333597 279.34947488 66.04518914 279.34137011 67.01558331 C279.32099388 70.19586694 279.3364846 73.37498371 279.35162354 76.55528259 C279.34443547 78.84856796 279.33507207 81.14184738 279.32371116 83.43511587 C279.29886031 89.75581146 279.30543618 96.07614996 279.31705856 102.39686954 C279.32592266 108.50740324 279.30655949 114.61788133 279.29039069 120.72838943 C279.25429366 134.77412964 279.25204579 148.81975321 279.26001683 162.86552804 C279.265969 173.70970279 279.2627638 184.55384042 279.25304413 195.39801216 C279.25168488 196.95469426 279.2503277 198.51137635 279.24897258 200.06805845 C279.24692019 202.41368168 279.24486165 204.7593049 279.24278099 207.1049281 C279.22363946 228.91984101 279.21459174 250.73473974 279.22665787 272.54965878 C279.22733819 273.783829 279.22733819 273.783829 279.22803226 275.04293195 C279.23177245 281.72498843 279.23577233 288.40704475 279.23979373 295.08910106 C279.25525564 321.15737512 279.23896528 347.22545764 279.19726562 373.29370117 C279.15050774 402.56579859 279.12689433 431.83777926 279.13802886 461.10991579 C279.13914031 464.22933453 279.14017624 467.34875329 279.14116669 470.46817207 C279.14142723 471.23628062 279.14168777 472.00438917 279.1419562 472.79577374 C279.14542937 484.40545456 279.13077611 496.01502324 279.10706329 507.62467766 C279.08014382 520.82352107 279.07764254 534.02210809 279.10792437 547.22094982 C279.12272485 553.95984117 279.1254236 560.69820738 279.09827042 567.43707657 C279.0737362 573.60002673 279.08121369 579.76205784 279.11477134 585.92495782 C279.12122945 588.16044221 279.11573856 590.39599785 279.09742382 592.63141655 C279.07434988 595.65962833 279.09396264 598.68460354 279.12469864 601.71267605 C279.09925885 603.02928246 279.09925885 603.02928246 279.07330513 604.37248698 C279.11410567 608.92148351 279.11410567 608.92148351 281.5486035 612.56514478 C283.39230659 613.89233292 283.39230659 613.89233292 285.31031333 614.90927115 C288.38577472 616.89454719 289.02343727 619.61075287 290 623 C290.74783161 628.88917392 289.97684395 632.3722591 286.53125 637.234375 C283.1318889 641.15404647 280.14079639 642.63730309 275.1640625 643.48046875 C269.43926219 643.86260278 265.80580022 643.49685829 261.375 639.6875 C257.78969004 636.0794982 255.82072075 633.06111127 255 628 C253.68 628.66 252.36 629.32 251 630 C250.67 653.76 250.34 677.52 250 702 C243.73 702 237.46 702 231 702 C231.01512571 700.64938665 231.03025143 699.29877331 231.04583549 697.90723228 C231.40089957 665.75929559 231.64081787 633.61266298 231.74125498 601.46295335 C231.75374844 597.49564428 231.76720219 593.52833901 231.78125 589.56103516 C231.78403021 588.77130246 231.78681043 587.98156976 231.78967489 587.16790576 C231.83682507 574.42337945 231.96154651 561.68075492 232.11555611 548.93712299 C232.27214229 535.83548148 232.34393262 522.73529753 232.33897984 509.63271296 C232.33858239 502.28267411 232.37634907 494.93708303 232.51125717 487.58817673 C235.08345767 453.80302893 235.08345767 453.80302893 222.30562019 424.44228554 C218.71165139 421.05694116 214.77508447 418.29418755 210.55097675 415.74640274 C207.89051806 413.92504849 206.47036272 412.1865681 204.610672 409.58163452 C202.53090173 407.05264757 201.45897692 406.12258085 198.26449966 405.26941872 C194.79854805 404.95823948 191.41941599 404.91882924 187.93969727 404.96484375 C186.6347934 404.9508252 185.32988953 404.93680664 183.98544312 404.92236328 C180.42077453 404.88602286 176.85796681 404.89997419 173.29326749 404.92539597 C169.55336766 404.94572407 165.81362166 404.92684557 162.07371521 404.91430664 C155.79323881 404.89977118 149.51351612 404.91887899 143.2331543 404.95703125 C135.98610142 405.00054941 128.74084984 404.98647795 121.49384075 404.94242001 C115.25822591 404.90603704 109.02315132 404.90103148 102.78746456 404.92192936 C99.06912077 404.93436179 95.35162173 404.93617822 91.63333321 404.90963745 C87.48438198 404.88208906 83.33850109 404.92033301 79.18969727 404.96484375 C77.96710709 404.9486499 76.74451691 404.93245605 75.48487854 404.91577148 C69.40905804 405.03634057 65.80719052 405.46801051 61.37876892 409.83032227 C60.22066421 411.19379142 59.09236201 412.58331376 58 414 C56.92391686 415.25624687 55.84043796 416.50619287 54.75 417.75 C53.91139246 418.77425142 53.91139246 418.77425142 53.05584335 419.81919479 C51 422 51 422 48.05990982 424.12724686 C42.50241612 428.29513483 38.92255695 432.32911906 37.89177704 439.37184906 C37.32340108 446.2307994 37.44858399 453.08843513 37.54589844 459.96386719 C37.53941468 462.60616542 37.52818008 465.24804874 37.5110321 467.89025879 C37.48362955 473.56114002 37.49969931 479.23052803 37.5460434 484.90126801 C37.61298111 493.0997098 37.61319818 501.29710937 37.59759203 509.49576035 C37.57405883 522.79986048 37.60382368 536.10327877 37.66748047 549.40722656 C37.7291695 562.32395376 37.7655244 575.24034646 37.76806641 588.15722656 C37.76831494 589.35326976 37.76831494 589.35326976 37.76856849 590.57347545 C37.76924432 594.57395897 37.76942482 598.57444233 37.76935911 602.5749259 C37.76945463 635.71699836 37.85951525 668.85822406 38 702 C31.07 702 24.14 702 17 702 C16.67 685.5 16.34 669 16 652 C15.67 652 15.34 652 15 652 C14.505 649.03 14.505 649.03 14 646 C13.29875 646.721875 12.5975 647.44375 11.875 648.1875 C6.3737186 653.67315276 2.26013312 657.11956915 -5.8125 657.3125 C-11.06392752 657.24915347 -14.10913098 656.79359729 -18 653 C-21.90902396 647.95941647 -22.63902496 643.93709384 -22.38671875 637.5859375 C-21.83156755 633.87371431 -20.49776428 631.76779285 -18 629 C-17.1403161 628.48798798 -16.28063221 627.97597596 -15.39489728 627.44844842 C-12.28426824 624.26826411 -12.39799064 622.42617782 -12.3342019 618.10858119 C-12.34573262 617.16931674 -12.35726335 616.23005229 -12.36914349 615.26232529 C-12.35795709 613.75612639 -12.35795709 613.75612639 -12.34654471 612.21949923 C-12.3275127 608.82742261 -12.34433985 605.43644974 -12.36076355 602.04437256 C-12.35445709 599.59903209 -12.34595747 597.15369645 -12.33544332 594.70837045 C-12.31757729 589.37778043 -12.315304 584.04751798 -12.32659721 578.7169342 C-12.34330603 570.79059007 -12.33145906 562.86446996 -12.31368351 554.93813735 C-12.28459704 541.6057699 -12.27878436 528.27348655 -12.28615379 514.94109344 C-12.29337658 501.73695106 -12.2903054 488.53287744 -12.27343178 475.32874298 C-12.27238913 474.50830065 -12.27134648 473.68785831 -12.27027224 472.84255409 C-12.26492362 468.67608313 -12.25939056 464.50961244 -12.25378648 460.34314182 C-12.21440627 430.81827817 -12.19818841 401.29344257 -12.19555664 371.76855469 C-12.19294671 343.08234062 -12.17986718 314.39616262 -12.15258789 285.70996094 C-12.15175147 284.82600594 -12.15091504 283.94205095 -12.15005327 283.03130944 C-12.1416421 274.15441497 -12.13301782 265.27752072 -12.12423737 256.40062661 C-12.10635481 238.31674778 -12.08989492 220.23286775 -12.07429504 202.14898682 C-12.073576 201.31748653 -12.07285697 200.48598625 -12.07211614 199.62928899 C-12.02424841 144.08620474 -12.00964987 88.54310241 -12 33 C-12.79760742 32.70416016 -13.59521484 32.40832031 -14.41699219 32.10351562 C-18.9009283 30.18788319 -19.886237 26.227526 -22 22 C-22.51576376 16.82545208 -22.64299093 12.38886042 -20.4375 7.625 C-14.21801483 0.9270929 -9.38398891 -1.51904208 0 0 Z " fill="#C4C0B9" transform="translate(694,256)"/>
<path d="M0 0 C4.29 0 8.58 0 13 0 C12.93603027 0.98242676 12.87206055 1.96485352 12.80615234 2.97705078 C11.27564306 30.02850815 16.68367277 49.10982929 29.68017578 72.69042969 C32.0915173 77.10358484 34.27342194 81.60901657 36.40234375 86.1640625 C36.72231827 86.8483432 37.04229279 87.5326239 37.3719635 88.23764038 C38.81650215 91.35664374 40.20900648 94.48788859 41.56274414 97.64794922 C42.84016326 100.62721957 44.18454637 103.55014218 45.59375 106.46875 C46.06683594 107.45230469 46.53992188 108.43585938 47.02734375 109.44921875 C47.51332031 110.45597656 47.99929688 111.46273437 48.5 112.5 C53.91597032 123.71982179 53.91597032 123.71982179 55.6875 127.90625 C56.86027591 130.67065036 58.12967905 133.32963097 59.5 136 C60.87413121 138.67779415 62.14590772 141.34399078 63.32177734 144.11621094 C65.14394959 148.38809526 67.13270384 152.57475092 69.1328125 156.765625 C69.52894745 157.59850037 69.9250824 158.43137573 70.33322144 159.28948975 C71.59589087 161.94359348 72.86038372 164.59682343 74.125 167.25 C74.95064787 168.98431453 75.77616967 170.71868908 76.6015625 172.453125 C77.00912781 173.30950562 77.41669312 174.16588623 77.83660889 175.04821777 C81.15125835 182.01336008 81.15125835 182.01336008 82.76477051 185.40454102 C83.59701353 187.15324654 84.42962193 188.90177822 85.26257324 190.65014648 C86.48624445 193.21927326 87.70815002 195.78923316 88.9296875 198.359375 C89.29563019 199.12670959 89.66157288 199.89404419 90.03860474 200.68463135 C92.12777636 205.08515044 94.09684631 209.51604208 96 214 C97.86823179 218.15852374 99.77965568 222.29702071 101.6875 226.4375 C102.17927734 227.51193359 102.67105469 228.58636719 103.17773438 229.69335938 C105.98558249 235.7884443 108.88759426 241.82381795 111.90625 247.81640625 C116.01771819 255.97857809 119.93572989 264.22425647 123.8125 272.5 C124.51014062 273.98577345 125.20781361 275.47153169 125.90551758 276.95727539 C132.12385021 290.21273235 138.27491027 303.50000034 144.28344727 316.85205078 C146.59292781 321.9727131 148.98153578 327.01129064 151.5625 332 C155.32144428 339.37757433 158.66808344 346.92173742 162 354.5 C166.75629367 365.31897185 166.75629367 365.31897185 171.9375 375.9375 C175.58036781 383.03969149 178.95929444 390.2571583 182.3125 397.5 C182.59095764 398.10113617 182.86941528 398.70227234 183.15631104 399.32162476 C186.12355847 405.73163868 189.07211636 412.15001876 192 418.578125 C192.47526123 419.62033203 192.95052246 420.66253906 193.44018555 421.73632812 C194.31176571 423.65036219 195.18072649 425.56559289 196.04614258 427.48242188 C198.53020822 432.94330136 201.150227 438.31845271 203.85546875 443.671875 C208.31856876 452.51873979 212.38168871 461.52936734 216.42724609 470.57275391 C220.16747311 478.92087764 224.03459474 487.1736241 228.16056824 495.33862305 C231.01675116 500.99800012 233.69212194 506.72764377 236.3125 512.5 C241.54271534 523.92468438 246.90998526 535.28093893 252.3125 546.625 C258.24639587 559.08660705 264.1549609 571.55895172 270 584.0625 C275.52001922 595.86856785 281.11144929 607.63873851 286.74902344 619.38916016 C288.84111466 623.7554411 290.92287281 628.1265835 293 632.5 C293.36206543 633.25966064 293.72413086 634.01932129 294.09716797 634.80200195 C294.43635254 635.51702881 294.77553711 636.23205566 295.125 636.96875 C295.41632813 637.58169922 295.70765625 638.19464844 296.0078125 638.82617188 C297.39254418 641.86004265 298.68630107 644.93470249 300 648 C302.97 654.27 305.94 660.54 309 667 C309.33 446.89 309.66 226.78 310 0 C314.62 0 319.24 0 324 0 C324 244.86 324 489.72 324 742 C319.38 742 314.76 742 310 742 C310.03254883 740.88890869 310.06509766 739.77781738 310.09863281 738.63305664 C310.64569504 716.317224 310.48283495 698.58307562 298.73779297 679.03125 C295.53498523 673.4445598 292.96981378 667.54678461 290.3125 661.6875 C289.22231972 659.33158421 288.13119613 656.97610466 287.0390625 654.62109375 C284.01195332 648.0485089 281.05648614 641.44525033 278.11181641 634.83544922 C275.47724059 628.96190211 272.675506 623.18740098 269.73706055 617.45996094 C268.12063012 614.30059384 266.59534468 611.12636371 265.171875 607.875 C262.74612221 602.35405915 260.09662304 596.9454844 257.45672607 591.5244751 C251.57871567 579.4494987 245.84691373 567.31457699 240.26391602 555.1003418 C237.72232473 549.56984242 235.0635112 544.25562365 232 539 C231.29212098 537.39252473 230.61975709 535.76846299 230 534.125 C228.14136551 529.34259048 226.14026223 524.66295376 224 520 C223.73203613 519.4136377 223.46407227 518.82727539 223.18798828 518.22314453 C219.15586281 509.42835707 214.96417641 500.76831264 210.23364258 492.32421875 C208.02515939 488.2874805 206.28325629 484.22383261 204.67578125 479.91015625 C202.12278164 473.11424675 199.05278841 466.64014837 195.84033203 460.14135742 C194.16999915 456.76055974 192.51874089 453.37047037 190.8671875 449.98046875 C190.53692566 449.30321747 190.20666382 448.62596619 189.86639404 447.92819214 C186.81833774 441.66097948 183.88699463 435.34298891 181 429 C180.55551514 428.02345459 180.11103027 427.04690918 179.65307617 426.04077148 C178.81579242 424.19868383 177.97908837 422.35633253 177.14306641 420.51367188 C173.59792632 412.7176953 170.01044724 404.94576284 166.125 397.3125 C163.43136126 391.98986984 160.98851983 386.57289527 158.5625 381.125 C156.02866825 375.43698821 153.45394349 369.79934238 150.625 364.25 C144.66172191 352.53292665 139.29445889 340.49685298 134 328.46484375 C131.67405346 323.21485013 129.1790924 318.04791314 126.6875 312.875 C122.87123919 304.93294856 119.10436901 296.97304629 115.4375 288.9609375 C114.06173629 286.01373144 114.06173629 286.01373144 112.4296875 283.39453125 C111.04117219 281.0689578 110.07110544 278.84521588 109.125 276.3125 C107.46311117 272.05156699 105.5562393 268.01535482 103.4765625 263.9453125 C101.6304328 260.26282099 99.8746164 256.54161248 98.125 252.8125 C97.82174805 252.16659912 97.51849609 251.52069824 97.20605469 250.85522461 C95.34044967 246.87472287 93.48250828 242.89065246 91.62446594 238.90661621 C87.74972027 230.59938765 83.86419231 222.2972752 79.96557617 214.0012207 C79.27780152 212.53698423 78.59063108 211.07246381 77.90405273 209.60766602 C74.10852219 201.51059411 70.27788581 193.44494767 66.21044922 185.47949219 C65.0799494 183.16376888 64.10333143 180.8449081 63.1875 178.4375 C61.2307765 173.35659612 58.90545002 168.47346409 56.5625 163.5625 C56.16836914 162.73548584 55.77423828 161.90847168 55.36816406 161.05639648 C54.5977068 159.44122681 53.82688476 157.82623107 53.05566406 156.21142578 C51.67187813 153.31264386 50.29438466 150.4114868 48.9375 147.5 C48.55464844 146.6853125 48.17179687 145.870625 47.77734375 145.03125 C47 143 47 143 47 140 C46.34 140 45.68 140 45 140 C45 271.01 45 402.02 45 537 C45.66 537 46.32 537 47 537 C47.2055463 536.4519829 47.41109261 535.9039658 47.62286758 535.33934212 C49 533 49 533 51.76919174 530.57092094 C58.72359116 524.42984738 61.68364493 518.84652858 62.36301184 509.53180718 C62.55431774 503.68831937 62.56199239 497.85685417 62.47733045 492.01218438 C62.43749049 488.34082807 62.46768444 484.66992315 62.4889679 480.99850464 C62.51636192 474.65218354 62.50031204 468.30719713 62.4539566 461.96100235 C62.38700212 452.78597135 62.38680466 443.61187139 62.40240797 434.43665336 C62.42593756 419.54752691 62.39618438 404.65900983 62.33251953 389.77001953 C62.27082486 375.31488731 62.23447533 360.86005404 62.23193359 346.40478516 C62.23176791 345.51236461 62.23160222 344.61994407 62.23143151 343.70048048 C62.23075568 339.22304795 62.23057518 334.74561556 62.23064089 330.26818299 C62.23054538 293.17848922 62.14380742 256.08940124 62 219 C65.04104039 221.84992585 66.386032 224.66281484 68.08203125 228.4921875 C68.37244797 229.14111969 68.66286469 229.79005188 68.96208191 230.45864868 C69.58923154 231.86076147 70.21350378 233.26416408 70.83520508 234.66870117 C72.50570331 238.43994587 74.19962507 242.20061238 75.89453125 245.9609375 C76.23936554 246.72666077 76.58419983 247.49238403 76.93948364 248.28131104 C80.16549687 255.41826036 83.5596401 262.46404264 87 269.5 C92.84089481 281.46445391 98.4016807 293.54038377 103.8515625 305.6875 C106.47088566 311.51474119 109.11814625 317.31151601 112.0078125 323.01171875 C115.20883563 329.32838317 118.0983832 335.77349796 120.97897339 342.23995972 C125.2592075 351.84173144 129.56794043 361.40809123 134.37451172 370.76074219 C136.92629216 375.75389613 139.1530832 380.85156758 141.35717773 386.00366211 C143.4091282 390.75820985 145.64845788 395.38701317 148 400 C150.68356381 405.26430909 153.17590754 410.56740074 155.5 416 C157.75314809 421.25989148 160.14930852 426.40306248 162.75 431.5 C166.19239808 438.248733 169.36868135 445.10186711 172.5 452 C175.59332846 458.81272544 178.72414111 465.58500448 182.125 472.25 C185.02954804 477.94797707 187.71373883 483.71884226 190.3125 489.5625 C193.45962765 496.63525885 196.7056773 503.64928632 200.0625 510.625 C204.71240245 520.29126684 209.30837024 529.9816929 213.875 539.6875 C214.39009125 540.78171768 214.39009125 540.78171768 214.91558838 541.89804077 C218.93761608 550.44452569 222.93200448 559.00277044 226.88842773 567.57983398 C232.74568323 580.27563144 238.798583 592.86280464 244.93612671 605.42477417 C249.152224 614.05909373 253.30629021 622.69534946 257.12207031 631.51586914 C259.9248371 637.95131089 262.99368494 644.25041762 266.0625 650.5625 C271.05828213 660.84677158 275.86049236 671.20358246 280.5625 681.625 C285.10010382 691.67980692 289.70445405 701.68978857 294.5 711.625 C294.98766846 712.63602783 295.47533691 713.64705566 295.9777832 714.6887207 C297.71109325 718.27664553 299.44732951 721.86312322 301.18945312 725.44677734 C302.21679804 727.56533651 303.23471674 729.68814166 304.25 731.8125 C304.79140625 732.93269531 305.3328125 734.05289063 305.890625 735.20703125 C307 738 307 738 307 742 C304.20807795 742.05380578 301.4171859 742.09357669 298.625 742.125 C297.8309375 742.14175781 297.036875 742.15851562 296.21875 742.17578125 C294.14507985 742.19335473 292.07116759 742.10335168 290 742 C288 740 288 740 286.8125 736.25 C284.87109273 730.16368822 281.91530589 724.60450093 279 718.94287109 C277.25526264 715.55307131 275.5312356 712.15303978 273.8125 708.75 C273.49192627 708.12536865 273.17135254 707.5007373 272.84106445 706.85717773 C271.09185569 703.39620779 269.54642582 699.9196039 268.140625 696.3046875 C265.73121189 690.16887876 262.83442297 684.292448 259.9375 678.375 C258.77029478 675.97222045 257.6042765 673.56893609 256.44140625 671.1640625 C256.14983643 670.56110352 255.8582666 669.95814453 255.55786133 669.33691406 C252.74932887 663.51111218 250.05066216 657.63772001 247.375 651.75 C243.87062333 644.04378284 240.29611499 636.37823083 236.625 628.75 C232.03949973 619.2182778 227.56270613 609.63949544 223.11987305 600.04052734 C218.92091345 590.97185964 214.68589287 581.92060304 210.4375 572.875 C205.79789711 562.99521467 201.18855625 553.10270242 196.625 543.1875 C187.65224654 523.69437245 187.65224654 523.69437245 178.1875 504.4375 C175.8612607 499.8383755 173.86204697 495.23695579 172.02734375 490.42578125 C170.49141396 486.79911814 168.54245424 483.4316062 166.5625 480.03125 C164.82053354 476.65183507 163.47040273 473.20433192 162.08447266 469.66748047 C160.30600714 465.2929838 158.24519432 461.06102888 156.1875 456.8125 C155.3028203 454.97292792 154.41870925 453.13308226 153.53515625 451.29296875 C153.10477051 450.39755371 152.67438477 449.50213867 152.23095703 448.57958984 C149.95929 443.81909127 147.76459613 439.02311214 145.5703125 434.2265625 C144.02575567 430.9421087 144.02575567 430.9421087 142.0546875 427.7109375 C140.02663878 424.22614163 138.61175406 420.61414332 137.15673828 416.86083984 C134.81765165 411.07582145 132.09299771 405.45745563 129.4375 399.8125 C128.81342496 398.4807752 128.18948475 397.14898721 127.56567383 395.81713867 C122.52238687 385.0618834 117.40372247 374.34311165 112.26269531 363.63427734 C110.18630048 359.30243274 108.12225237 354.96477844 106.0625 350.625 C105.53209106 349.51088745 105.53209106 349.51088745 104.9909668 348.37426758 C103.26609075 344.73635471 101.58800383 341.08468305 99.96875 337.3984375 C98.25794364 333.524835 96.38191208 329.76283633 94.4375 326 C89.19662566 315.71226323 84.68714509 305.0898905 80.10986328 294.49511719 C79.13101061 292.2945289 78.08478397 290.14950504 77 288 C77.0040642 289.2061411 77.0081284 290.4122822 77.01231575 291.65497303 C77.10664983 320.31444407 77.14923496 348.97368461 77.12847102 377.63329716 C77.12595794 381.16414128 77.12387969 384.69498553 77.12207031 388.22583008 C77.12151905 389.28017959 77.12151905 389.28017959 77.12095664 390.35582908 C77.11604917 401.7231671 77.1463329 413.09015098 77.18972255 424.45739553 C77.2334887 436.12948298 77.23845914 447.8011133 77.2099179 459.47324914 C77.19511589 466.02613634 77.1977714 472.57795783 77.24249649 479.13073158 C77.28406778 485.30278564 77.27856718 491.47303475 77.23747826 497.64507484 C77.23062865 499.90611212 77.24075176 502.16727678 77.26943016 504.42814255 C77.49692213 523.62560452 77.49692213 523.62560452 71.20065308 530.59611511 C69.48567292 532.08573036 67.75257203 533.55480043 66 535 C64.48004748 536.75719886 63.00089695 538.55044041 61.5625 540.375 C59.2163098 543.34828567 56.89895422 546.09932998 54.19532299 548.75705242 C46.86580356 556.06751023 44.60346734 561.8058712 44.56791687 572.10395813 C44.59738913 573.76634549 44.62792632 575.42871424 44.65942383 577.09106445 C44.65265008 578.87623456 44.64103781 580.66139177 44.625 582.44650269 C44.59532323 587.25440273 44.63265423 592.0596452 44.68273759 596.86728692 C44.72359098 601.90549475 44.70183211 606.94343939 44.68693542 611.98173523 C44.66817834 621.50507706 44.70509673 631.02734243 44.76240796 640.55049723 C44.82495836 651.39948734 44.82485047 662.24820019 44.81968272 673.09733641 C44.81045318 695.3986323 44.88147157 717.69904856 45 740 C40.38 740 35.76 740 31 740 C31.00081311 737.99943052 31.00081311 737.99943052 31.00164264 735.95844549 C31.02507739 677.16907874 31.03982908 618.37971405 31.01039124 559.59034729 C31.0099479 558.70005428 31.00950456 557.80976127 31.00904779 556.89248969 C30.99936048 537.54319306 30.98811838 518.19389763 30.97527504 498.84460285 C30.96898596 489.35546783 30.9630404 479.86633261 30.95727539 470.37719727 C30.95669586 469.43292323 30.95611633 468.48864919 30.95551924 467.51576078 C30.93690202 436.91894404 30.94095996 406.32218145 30.9567992 375.72536477 C30.97295857 344.27846765 30.96619707 312.83165653 30.93066883 281.3847733 C30.92565934 276.94130543 30.92091138 272.4978373 30.91632271 268.05436897 C30.91541152 267.17984606 30.91450033 266.30532315 30.91356153 265.40429955 C30.89957659 251.33698487 30.90969449 237.26978621 30.92886689 223.20248195 C30.94763417 209.05393016 30.94091098 194.90557114 30.90833985 180.75704282 C30.88976762 172.35499949 30.89056845 163.9534845 30.91942088 155.55146737 C30.93883361 149.27022766 30.92159645 142.98958169 30.89036006 136.70840085 C30.8834108 134.17248861 30.88821526 131.63651035 30.9061371 129.10065191 C30.99909263 114.93650553 30.44439551 104.27701965 23 92 C21.88180757 89.84053845 20.77550687 87.67482632 19.6875 85.5 C18.96240234 84.06914062 18.96240234 84.06914062 18.22265625 82.609375 C16.73620283 79.43700796 15.77486779 76.40941829 15 73 C14.34 73 13.68 73 13 73 C13 261.76 13 450.52 13 645 C14.65 645.66 16.3 646.32 18 647 C21.62735682 649.62806329 23.67607104 652.43613105 24.58984375 656.84765625 C24.91710423 663.16138901 24.09032258 667.60101748 19.828125 672.37109375 C16.01639412 675.7674437 12.63622062 677.87925707 7.44140625 678.1171875 C0.90869008 677.67067198 -3.41343702 676.06172623 -7.8125 671.125 C-11.27537083 665.93069375 -11.04934163 659.96583737 -10 654 C-8.48678691 650.78381399 -6.76115826 648.25452372 -4 646 C-2.68 645.67 -1.36 645.34 0 645 C0 432.15 0 219.3 0 0 Z " fill="#070606" transform="translate(309,216)"/>
<path d="M0 0 C5.23219836 2.51920662 9.38537029 6.77074058 12 12 C12.58194302 18.8885813 11.87995308 23.78474881 7.5 29.25 C5 32 5 32 3 33 C2.67 124.74 2.34 216.48 2 311 C88.79 311 175.58 311 265 311 C265 226.52 265 142.04 265 55 C263.68 54.34 262.36 53.68 261 53 C255.95835721 47.38216947 255.47837409 42.68786242 255.51953125 35.3125 C256.28409672 30.04134946 258.89561195 27.20951099 263 24 C266.93189584 21.64086249 270.46758591 21.60927465 275 22 C281.04547445 23.80303624 284.52959208 26.87590777 288 32 C289.45016555 36.35049665 289.51070107 40.45334185 289 45 C287.19155769 48.61688462 285.84346152 50.48467663 282.39514327 52.59146982 C279.34260663 55.66106767 279.39933443 57.30338549 279.33146787 61.49457744 C279.342602 62.37465621 279.35373614 63.25473498 279.36520767 64.16148281 C279.35734128 65.10333597 279.34947488 66.04518914 279.34137011 67.01558331 C279.32099388 70.19586694 279.3364846 73.37498371 279.35162354 76.55528259 C279.34443547 78.84856796 279.33507207 81.14184738 279.32371116 83.43511587 C279.29886031 89.75581146 279.30543618 96.07614996 279.31705856 102.39686954 C279.32592266 108.50740324 279.30655949 114.61788133 279.29039069 120.72838943 C279.25429366 134.77412964 279.25204579 148.81975321 279.26001683 162.86552804 C279.265969 173.70970279 279.2627638 184.55384042 279.25304413 195.39801216 C279.25168488 196.95469426 279.2503277 198.51137635 279.24897258 200.06805845 C279.24692019 202.41368168 279.24486165 204.7593049 279.24278099 207.1049281 C279.22363946 228.91984101 279.21459174 250.73473974 279.22665787 272.54965878 C279.22733819 273.783829 279.22733819 273.783829 279.22803226 275.04293195 C279.23177245 281.72498843 279.23577233 288.40704475 279.23979373 295.08910106 C279.25525564 321.15737512 279.23896528 347.22545764 279.19726562 373.29370117 C279.15050774 402.56579859 279.12689433 431.83777926 279.13802886 461.10991579 C279.13914031 464.22933453 279.14017624 467.34875329 279.14116669 470.46817207 C279.14142723 471.23628062 279.14168777 472.00438917 279.1419562 472.79577374 C279.14542937 484.40545456 279.13077611 496.01502324 279.10706329 507.62467766 C279.08014382 520.82352107 279.07764254 534.02210809 279.10792437 547.22094982 C279.12272485 553.95984117 279.1254236 560.69820738 279.09827042 567.43707657 C279.0737362 573.60002673 279.08121369 579.76205784 279.11477134 585.92495782 C279.12122945 588.16044221 279.11573856 590.39599785 279.09742382 592.63141655 C279.07434988 595.65962833 279.09396264 598.68460354 279.12469864 601.71267605 C279.09925885 603.02928246 279.09925885 603.02928246 279.07330513 604.37248698 C279.11410567 608.92148351 279.11410567 608.92148351 281.5486035 612.56514478 C283.39230659 613.89233292 283.39230659 613.89233292 285.31031333 614.90927115 C288.38577472 616.89454719 289.02343727 619.61075287 290 623 C290.74783161 628.88917392 289.97684395 632.3722591 286.53125 637.234375 C283.1318889 641.15404647 280.14079639 642.63730309 275.1640625 643.48046875 C269.43926219 643.86260278 265.80580022 643.49685829 261.375 639.6875 C257.20964814 635.49578515 255.6937992 632.65239037 255.625 626.6875 C255.71313942 621.02769004 256.1089327 618.10723771 260 614 C261.04389904 613.33362826 261.04389904 613.33362826 262.10888696 612.65379447 C264.19082638 611.15992784 264.19082638 611.15992784 264.50320601 608.79356414 C264.5047249 607.92590319 264.50624378 607.05824223 264.50780869 606.16428852 C264.51925627 605.16206424 264.53070386 604.15983996 264.54249835 603.12724525 C264.53085772 601.47113622 264.53085772 601.47113622 264.51898193 599.78157043 C264.52648319 598.61111118 264.53398444 597.44065194 264.541713 596.23472422 C264.55853797 592.98046795 264.55740456 589.7267787 264.54880548 586.47250807 C264.54387293 582.96532014 264.56193014 579.45824307 264.57722473 575.95109558 C264.60057096 569.87296348 264.60928378 563.7949508 264.60811615 557.71677589 C264.60644901 548.92873686 264.6267601 540.14085732 264.65247145 531.35286077 C264.69358571 517.09568123 264.71687379 502.83853031 264.72900391 488.58129883 C264.74082668 474.73003377 264.76105809 460.87882292 264.79248047 447.02758789 C264.79539874 445.73428508 264.79539874 445.73428508 264.79837596 444.41485494 C264.81365645 437.67207741 264.82942534 430.92930103 264.8453486 424.18652499 C264.92330069 391.12435882 264.95864373 358.06227131 265 325 C178.21 325 91.42 325 2 325 C2.00304804 378.19830788 2.00304804 378.19830788 2.0625 431.39648438 C2.07467691 438.56404552 2.08647947 445.73160714 2.09765625 452.89916992 C2.09907269 453.79753167 2.10048913 454.69589342 2.1019485 455.62147826 C2.12428265 470.13295788 2.12547487 484.6443664 2.11888863 499.15585842 C2.11260093 514.0438609 2.12896225 528.93171367 2.16643608 543.81967098 C2.18885109 553.00957377 2.19350943 562.1991358 2.17559664 571.38904992 C2.16501102 577.68728954 2.17638598 583.9852486 2.20516153 590.28343048 C2.22112217 593.91962715 2.22727391 597.55515671 2.20739174 601.19134903 C2.18610224 605.13112375 2.21099282 609.06982764 2.24050903 613.00956726 C2.22692293 614.16228754 2.21333683 615.31500782 2.19933903 616.50265902 C2.12017578 621.96988433 2.12017578 621.96988433 4.32040191 626.77185977 C6.092966 628.31856017 6.092966 628.31856017 9 630 C12.55792045 634.03230984 12.50435363 638.17663181 12.3515625 643.34375 C11.68392555 648.38811809 9.08869125 651.01752253 5.4375 654.3125 C0.14975448 657.9732469 -5.7981964 657.57500166 -12 657 C-16.39427166 655.03827158 -19.08317338 652.45601913 -21.3046875 648.125 C-23.16327549 642.44482097 -22.92786445 636.89009424 -20.3125 631.5625 C-18 629 -18 629 -15.39489728 627.44844842 C-12.28426824 624.26826411 -12.39799064 622.42617782 -12.3342019 618.10858119 C-12.34573262 617.16931674 -12.35726335 616.23005229 -12.36914349 615.26232529 C-12.35795709 613.75612639 -12.35795709 613.75612639 -12.34654471 612.21949923 C-12.3275127 608.82742261 -12.34433985 605.43644974 -12.36076355 602.04437256 C-12.35445709 599.59903209 -12.34595747 597.15369645 -12.33544332 594.70837045 C-12.31757729 589.37778043 -12.315304 584.04751798 -12.32659721 578.7169342 C-12.34330603 570.79059007 -12.33145906 562.86446996 -12.31368351 554.93813735 C-12.28459704 541.6057699 -12.27878436 528.27348655 -12.28615379 514.94109344 C-12.29337658 501.73695106 -12.2903054 488.53287744 -12.27343178 475.32874298 C-12.27238913 474.50830065 -12.27134648 473.68785831 -12.27027224 472.84255409 C-12.26492362 468.67608313 -12.25939056 464.50961244 -12.25378648 460.34314182 C-12.21440627 430.81827817 -12.19818841 401.29344257 -12.19555664 371.76855469 C-12.19294671 343.08234062 -12.17986718 314.39616262 -12.15258789 285.70996094 C-12.15175147 284.82600594 -12.15091504 283.94205095 -12.15005327 283.03130944 C-12.1416421 274.15441497 -12.13301782 265.27752072 -12.12423737 256.40062661 C-12.10635481 238.31674778 -12.08989492 220.23286775 -12.07429504 202.14898682 C-12.073576 201.31748653 -12.07285697 200.48598625 -12.07211614 199.62928899 C-12.02424841 144.08620474 -12.00964987 88.54310241 -12 33 C-12.79760742 32.70416016 -13.59521484 32.40832031 -14.41699219 32.10351562 C-18.9009283 30.18788319 -19.886237 26.227526 -22 22 C-22.51576376 16.82545208 -22.64299093 12.38886042 -20.4375 7.625 C-14.21801483 0.9270929 -9.38398891 -1.51904208 0 0 Z " fill="#070706" transform="translate(694,256)"/>
<path d="M0 0 C6.6 0 13.2 0 20 0 C19.97699829 3.13407349 19.95399658 6.26814697 19.93029785 9.49719238 C19.72644464 38.28986198 19.60260401 67.08173705 19.565137 95.87506911 C19.56014645 99.65483224 19.55445873 103.43459401 19.54833984 107.21435547 C19.54713349 107.96678404 19.54592714 108.71921261 19.54468423 109.49444205 C19.52353457 121.65086851 19.44601133 133.80630708 19.34736067 145.96232349 C19.24727253 158.45145728 19.20844581 170.93971841 19.22555113 183.42924643 C19.23418988 191.1262801 19.19602138 198.82007641 19.09643197 206.51648307 C19.02498725 212.43513924 19.03910754 218.35173643 19.08387566 224.2707119 C19.08906325 226.6861548 19.06723562 229.10184231 19.01533699 231.51673317 C18.78646166 242.83140306 18.67421411 251.68531235 26.75944948 260.2668519 C29.50670912 262.86155319 32.33255066 265.29279699 35.33448076 267.58805323 C37 269 37 269 39 272 C41.45806833 272.47649726 41.45806833 272.47649726 44.3809967 272.42805481 C45.5234787 272.4466304 46.66596069 272.46520599 47.84306335 272.48434448 C49.10278458 272.4892691 50.3625058 272.49419373 51.66040039 272.49926758 C52.9958431 272.51478739 54.33127258 272.53148337 55.66668701 272.54927063 C59.30133358 272.59296316 62.93582948 272.61637981 66.57068944 272.63349748 C68.84322957 272.6445098 71.11572717 272.65879546 73.38824272 272.67401695 C80.50294036 272.72044158 87.61753675 272.75398996 94.73236853 272.7700327 C102.9364517 272.78873957 111.13874416 272.85003679 119.34224898 272.94853479 C125.6872043 273.02207371 132.03165393 273.05692015 138.37702936 273.06289595 C142.16466662 273.06733303 145.95053507 273.08792431 149.73771858 273.14899635 C153.30658801 273.20550195 156.87244219 273.21367895 160.44161987 273.18595695 C162.36406549 273.18296974 164.28639313 273.22932518 166.20823669 273.27752686 C171.40028799 273.19674762 174.68619063 273.09459045 178.76724052 269.69449425 C181.23694342 266.98540256 181.23694342 266.98540256 183.31287289 264.14591503 C183.86962483 263.43776307 184.42637678 262.72961111 185 262 C185.66 262 186.32 262 187 262 C187.33 261.01 187.66 260.02 188 259 C188.66 258.67 189.32 258.34 190 258 C189.98699026 256.67561621 189.98699026 256.67561621 189.97371769 255.3244772 C189.76736782 233.7886205 189.64473345 212.25368403 189.61396885 190.71683407 C189.59709578 180.30133341 189.55244152 169.88736735 189.44116211 159.47241211 C189.34418106 150.38895866 189.30057156 141.30703932 189.31963962 132.22306162 C189.3279003 127.41739604 189.3104 122.61509178 189.22885323 117.81004143 C188.69455989 84.63930836 188.69455989 84.63930836 196.23976803 76.20625401 C198.75413867 73.92304818 201.33385549 71.97741911 204.21218681 70.1780262 C206.85734554 68.43507772 208.84309133 66.31014319 211 64 C211.33 63.67 211.66 63.34 212 63 C212.12363297 61.03712234 212.1779544 59.06984842 212.20532227 57.10327148 C212.22526749 55.84203964 212.24521271 54.5808078 212.26576233 53.28135681 C212.28274795 51.89460373 212.29962671 50.50784934 212.31640625 49.12109375 C212.33696926 47.7100411 212.35796555 46.29899471 212.37937927 44.88795471 C212.43466755 41.1676641 212.48404686 37.44731727 212.53222656 33.72692871 C212.58239242 29.93313575 212.63810408 26.13942477 212.69335938 22.34570312 C212.80102354 14.89720279 212.90193772 7.44863407 213 0 C218.28 0 223.56 0 229 0 C229 102.96 229 205.92 229 312 C223.72 312 218.44 312 213 312 C213 237.09 213 162.18 213 85 C209.4692353 88.35121568 209.4692353 88.35121568 208.93675423 92.81001186 C208.96536978 94.01936429 208.99398533 95.22871672 209.02346802 96.47471619 C209.04463647 97.48388457 209.04463647 97.48388457 209.06623256 98.51344019 C209.09760363 99.99283484 209.13123415 101.47218283 209.16679192 102.95148277 C209.26504698 107.06767011 209.34508776 111.18422224 209.42678833 115.30076599 C209.44461089 116.18066661 209.46243346 117.06056722 209.4807961 117.9671315 C209.72315283 130.26683959 209.82089753 142.56841058 209.92564583 154.8699255 C210.01500048 164.87207306 210.15384937 174.86901396 210.40917969 184.8684082 C210.63204485 193.60431432 210.75606015 202.33555928 210.76875198 211.07438189 C210.7788528 215.69066905 210.83425016 220.29508804 211.00934219 224.90830803 C211.6175737 241.64330234 212.09883048 256.19358992 200.24996698 269.12997752 C195.17390495 274.34311054 189.649229 279.00289982 183.96993637 283.53938484 C180.47495441 286.43500431 177.78950089 289.43674282 175 293 C173.37347883 294.71318786 171.69494568 296.35348134 170 298 C169.67 298.33 169.34 298.66 169 299 C167.46255098 299.13708171 165.91898547 299.20617237 164.37600708 299.24810791 C163.37556366 299.27694061 162.37512024 299.30577332 161.34436035 299.33547974 C160.23701538 299.36173431 159.12967041 299.38798889 157.98876953 299.41503906 C156.24942642 299.46103745 156.24942642 299.46103745 154.47494507 299.50796509 C143.71200593 299.77744229 132.94729852 299.94064807 122.18182564 300.06656265 C114.95309235 300.15309372 107.72864214 300.27487601 100.50244141 300.48828125 C94.19120643 300.67463762 87.88297284 300.7914788 81.5690316 300.82835174 C78.2314792 300.85004627 74.90838923 300.91329013 71.5722084 301.03943634 C49.82145601 301.82500458 49.82145601 301.82500458 41.25384521 294.92272949 C36.33733242 290.33455291 32.15124489 285.27339603 28 280 C26.71955251 278.49860136 25.4291597 277.00560297 24.12698364 275.52301025 C23.57626757 274.8957819 23.02555149 274.26855354 22.45814705 273.62231827 C20.70677747 271.67376386 18.8846367 269.81964923 17 268 C13.7691382 264.81903568 10.76272773 261.51632264 7.8359375 258.0546875 C5.91770488 255.79807489 5.91770488 255.79807489 2.93034935 253.5098629 C-0.44576143 250.11380888 -0.71124763 247.35549675 -0.77448785 242.68223345 C-0.7570108 241.72697343 -0.73953376 240.7717134 -0.7215271 239.7875061 C-0.72665365 238.76149146 -0.7317802 237.73547683 -0.7370621 236.67837083 C-0.74694265 233.24148332 -0.71394876 229.8063544 -0.68115234 226.36962891 C-0.67945988 223.90572145 -0.68040993 221.44181097 -0.68380737 218.97790527 C-0.68517353 213.67391996 -0.66816074 208.37048169 -0.63438034 203.06663895 C-0.58557232 195.39831729 -0.56998708 187.73020965 -0.56245239 180.0617495 C-0.5493277 167.61965809 -0.50941749 155.17780298 -0.45263672 142.73583984 C-0.39754414 130.65121644 -0.35508268 118.56665727 -0.32958984 106.48193359 C-0.3280135 105.73676104 -0.32643716 104.99158849 -0.32481305 104.22383495 C-0.3169827 100.48544134 -0.30940049 96.74704729 -0.30194163 93.00865293 C-0.23976334 62.00559144 -0.13245014 31.0028446 0 0 Z " fill="#050504" transform="translate(714,216)"/>
<path d="M0 0 C5.94 0 11.88 0 18 0 C18.64324219 1.41925781 19.28648437 2.83851563 19.94921875 4.30078125 C24.97233034 15.34294996 30.08582981 26.33256914 35.375 37.25 C41.05780689 48.98150708 46.57424469 60.78090518 52.04296875 72.61328125 C54.84691062 78.6799592 57.68394426 84.73041643 60.55395508 90.76611328 C61.88379737 93.57376783 63.16439537 96.38857087 64.375 99.25 C66.52383767 104.31491608 68.97644887 109.23754698 71.375 114.1875 C80.54267776 133.20011754 89.36940612 152.37174456 98.13500977 171.57250977 C104.60043126 185.72418626 111.27642879 199.76034181 118.09594727 213.74414062 C130.41728447 239.02286796 130.41728447 239.02286796 132.375 244.875 C133.69265902 248.54348249 135.49954848 251.83511536 137.375 255.25 C143.30578429 266.06697424 148.29659203 277.36389068 153.42675781 288.57519531 C154.48568368 290.88038031 155.55290761 293.18176953 156.62792969 295.47949219 C161.03308756 304.90669308 161.03308756 304.90669308 162.671875 309.40234375 C163.98216758 312.95169513 165.51991342 316.19974162 167.25 319.5625 C171.19284353 327.3165314 175.00456125 335.13210588 178.79504395 342.96139526 C179.46890205 344.35295065 180.14345344 345.74417054 180.81872559 347.13504028 C181.78317521 349.12176959 182.74541652 351.10955352 183.70703125 353.09765625 C184.2688208 354.25789307 184.83061035 355.41812988 185.40942383 356.61352539 C187.02091364 360.04452696 188.51174057 363.51409544 190 367 C190.80760703 368.72864919 191.62744456 370.45165098 192.4609375 372.16796875 C193.15751465 373.60837524 193.15751465 373.60837524 193.86816406 375.07788086 C194.36541992 376.10405518 194.86267578 377.13022949 195.375 378.1875 C200.28674258 388.37134944 205.08849491 398.60153685 209.83447266 408.86352539 C214.43446221 418.80222406 219.08455262 428.71687314 223.75 438.625 C224.10646606 439.38231415 224.46293213 440.1396283 224.8302002 440.91989136 C225.83953989 443.06396346 226.84932448 445.20782518 227.859375 447.3515625 C228.3146759 448.31826118 228.3146759 448.31826118 228.7791748 449.30448914 C229.8358013 451.54531669 230.89200697 453.78401394 232 456 C232.33 305.52 232.66 155.04 233 0 C237.95 0 242.9 0 248 0 C248 174.57 248 349.14 248 529 C245.74596853 525.99462471 244.34651473 523.87006173 242.87890625 520.55078125 C242.50056641 519.70193359 242.12222656 518.85308594 241.73242188 517.97851562 C241.15331055 516.65883789 241.15331055 516.65883789 240.5625 515.3125 C240.18029297 514.45205078 239.79808594 513.59160156 239.40429688 512.70507812 C237.93697107 509.39923543 236.47554928 506.09093783 235.03027344 502.77539062 C232.23069267 496.39200049 229.17826603 490.14013728 226.125 483.875 C220.54194781 472.36410475 215.21011398 460.75405603 210.02197266 449.06005859 C206.8852653 442.01448901 203.58450737 435.08084051 200.10774231 428.19662476 C196.06188707 420.17450744 192.21639328 412.05902384 188.375 403.9375 C187.79555634 402.71483429 187.79555634 402.71483429 187.20440674 401.46746826 C181.50151088 389.42737158 175.94305366 377.32952466 170.49987793 365.17007446 C166.77925779 356.86229979 162.94060939 348.64630239 158.79296875 340.54296875 C155.70146177 334.43404319 152.82983391 328.22161159 149.93945312 322.015625 C149.07214367 320.15478642 148.20033719 318.29604561 147.328125 316.4375 C144.62162524 310.66363385 141.94142179 304.8788876 139.29296875 299.078125 C138.81190674 298.0250415 138.33084473 296.97195801 137.83520508 295.88696289 C136.88674656 293.80879054 135.93987748 291.72989178 134.99487305 289.65014648 C132.87124196 284.99587106 130.70965739 280.37494169 128.40234375 275.80859375 C126.17172465 271.39342458 124.1531698 266.91297713 122.1875 262.375 C117.91045847 252.62841804 113.1523507 243.15943177 108.3046875 233.6875 C107.53511719 232.1715625 107.53511719 232.1715625 106.75 230.625 C106.31171875 229.77164063 105.8734375 228.91828125 105.421875 228.0390625 C104.22197943 225.47445053 103.16197332 222.91892381 102.12890625 220.28515625 C100.04507713 215.00926641 97.65896219 209.91604552 95.1875 204.8125 C94.2924916 202.9494479 93.39796184 201.08616578 92.50390625 199.22265625 C92.07223145 198.32434082 91.64055664 197.42602539 91.19580078 196.50048828 C89.64689707 193.26164144 88.13348302 190.00787855 86.625 186.75 C82.9580201 178.85991055 79.17729666 171.02523098 75.4050293 163.18505859 C72.16940114 156.45409988 68.98164831 149.70492374 65.83984375 142.9296875 C63.4341667 137.76701947 60.96206305 132.63593867 58.5 127.5 C54.64689077 119.45757824 50.82241643 111.40474834 47.07275391 103.31347656 C45.75232355 100.46586662 44.42884113 97.61968138 43.10546875 94.7734375 C37.74087566 83.23172935 32.38939602 71.68416794 27.0625 60.125 C21.52124662 48.10320354 15.92793577 36.1060441 10.32421875 24.11328125 C9.51863525 22.38585693 9.51863525 22.38585693 8.69677734 20.62353516 C7.48292402 18.02475091 6.25688681 15.43200876 5.02587891 12.84130859 C4.70126175 12.15473679 4.37664459 11.46816498 4.04219055 10.76078796 C3.41410605 9.4326625 2.78302869 8.10594722 2.14860535 6.78083801 C0 2.22521933 0 2.22521933 0 0 Z " fill="#060605" transform="translate(325,216)"/>
<path d="M0 0 C3.5089428 0.10343393 7.01783617 0.0904005 10.52803659 0.09324098 C16.40183772 0.11432496 22.26980853 0.21403671 28.14153147 0.36904359 C34.91205864 0.54734355 41.67758985 0.62371206 48.45032728 0.64161342 C55.70953168 0.66098993 62.96700004 0.74135416 70.22543049 0.84632158 C72.30061915 0.87308574 74.37570333 0.88991258 76.45100641 0.90501428 C80.31662666 0.93775119 84.17869681 1.0403408 88.04289865 1.15127015 C89.18163431 1.15549989 90.32036997 1.15972962 91.49361277 1.16408753 C99.08345242 1.46117281 99.08345242 1.46117281 102.43836451 4.13035989 C104.20202206 6.1398413 105.71617528 8.2089879 107.25432444 10.39272523 C108.40612904 11.60094121 109.57911301 12.78969914 110.78166819 13.94741273 C111.34563303 14.49913148 111.90959787 15.05085023 112.49065256 15.61928773 C113.65058341 16.74326206 114.81211027 17.86559109 115.97502756 18.98647523 C117.43713566 20.41971476 118.85050135 21.90235065 120.25432444 23.39272523 C120.25432444 24.05272523 120.25432444 24.71272523 120.25432444 25.39272523 C121.24432444 25.72272523 122.23432444 26.05272523 123.25432444 26.39272523 C124.68116426 27.97106194 124.68116426 27.97106194 126.23537302 29.97643495 C129.08944172 33.38454602 131.8758785 35.53515096 135.67488718 37.82683778 C143.70932037 43.22683315 150.5026691 49.50348643 152.96203375 59.17613721 C155.91016911 76.16934518 154.90666861 93.92734389 154.53216209 111.12081026 C154.37292267 118.63317564 154.34168084 126.14460212 154.31664987 133.65841581 C154.26873791 147.0525042 154.12300058 160.44361115 153.9139924 173.8360846 C153.71142163 186.82975008 153.55601408 199.82259996 153.46282053 212.81752992 C153.45704061 213.6212258 153.4512607 214.42492169 153.44530563 215.25297199 C153.41659058 219.28569628 153.38879002 223.31842626 153.36144376 227.35116005 C153.1341203 260.7005381 152.7456484 294.04617944 152.25432444 327.39272523 C146.31432444 327.39272523 140.37432444 327.39272523 134.25432444 327.39272523 C134.26945015 326.04211188 134.28457586 324.69149854 134.30015993 323.29995751 C134.65522401 291.15202082 134.8951423 259.00538821 134.99557941 226.85567858 C135.00807288 222.88836951 135.02152662 218.92106424 135.03557444 214.95376039 C135.03835465 214.16402769 135.04113487 213.37429499 135.04399933 212.56063099 C135.0911495 199.81610468 135.21587094 187.07348015 135.36988054 174.32984821 C135.52646672 161.22820671 135.59825706 148.12802276 135.59330428 135.02543819 C135.59290683 127.67539934 135.63067351 120.32980826 135.76558161 112.98090196 C138.3377821 79.19575416 138.3377821 79.19575416 125.55994463 49.83501077 C121.96597583 46.44966639 118.02940891 43.68691278 113.80530119 41.13912797 C111.14484249 39.31777372 109.72468716 37.57929333 107.86499643 34.97435975 C105.78522617 32.4453728 104.71330136 31.51530608 101.5188241 30.66214395 C98.05287248 30.35096471 94.67374043 30.31155447 91.1940217 30.35756898 C89.88911783 30.34355042 88.58421396 30.32953187 87.23976755 30.31508851 C83.67509897 30.27874809 80.11229124 30.29269942 76.54759192 30.31812119 C72.80769209 30.3384493 69.06794609 30.3195708 65.32803965 30.30703187 C59.04756325 30.29249641 52.76784055 30.31160422 46.48747873 30.34975648 C39.24042586 30.39327464 31.99517427 30.37920318 24.74816519 30.33514524 C18.51255035 30.29876227 12.27747576 30.29375671 6.041789 30.31465459 C2.3234452 30.32708702 -1.39405384 30.32890344 -5.11234236 30.30236268 C-9.26129359 30.27481429 -13.40717447 30.31305824 -17.5559783 30.35756898 C-19.38986357 30.33327821 -19.38986357 30.33327821 -21.26079702 30.30849671 C-27.33661752 30.4290658 -30.93848504 30.86073573 -35.36690664 35.22304749 C-36.52501135 36.58651665 -37.65331356 37.97603899 -38.74567556 39.39272523 C-39.8217587 40.6489721 -40.90523761 41.8989181 -41.99567556 43.14272523 C-42.55474726 43.82555951 -43.11381895 44.50839379 -43.68983221 45.21192002 C-45.74567556 47.39272523 -45.74567556 47.39272523 -48.68576574 49.51997209 C-54.24325944 53.68786006 -57.82311861 57.72184429 -58.85389853 64.76457429 C-59.42227449 71.62352463 -59.29709157 78.48116036 -59.19977713 85.35659242 C-59.20626088 87.99889065 -59.21749548 90.64077397 -59.23464346 93.28298402 C-59.26204601 98.95386525 -59.24597625 104.62325326 -59.19963217 110.29399323 C-59.13269445 118.49243503 -59.13247739 126.6898346 -59.14808354 134.88848558 C-59.17161673 148.19258571 -59.14185188 161.496004 -59.0781951 174.79995179 C-59.01650607 187.71667899 -58.98015116 200.63307169 -58.97760916 213.54995179 C-58.97736063 214.74599499 -58.97736063 214.74599499 -58.97710708 215.96620068 C-58.97643124 219.9666842 -58.97625075 223.96716756 -58.97631645 227.96765113 C-58.97622093 261.10972359 -58.88616032 294.25094929 -58.74567556 327.39272523 C-65.67567556 327.39272523 -72.60567556 327.39272523 -79.74567556 327.39272523 C-80.28972233 293.15067698 -80.71869417 258.91015822 -80.97124347 224.66471562 C-81.00125572 220.60985222 -81.03231991 216.55499752 -81.06403494 212.5001471 C-81.07033039 211.69299534 -81.07662584 210.88584357 -81.08311206 210.05423266 C-81.18717691 197.03256252 -81.37618769 184.01346931 -81.59734267 170.99332136 C-81.8228325 157.60497979 -81.95530212 144.21797498 -82.00379944 130.82781291 C-82.03360806 123.31728129 -82.10509362 115.81214065 -82.28319693 108.30353761 C-83.49289121 55.80629343 -83.49289121 55.80629343 -71.3368392 43.01721406 C-67.37956349 39.27512871 -63.08562587 36.20444382 -58.50009871 33.26397634 C-54.47649918 30.5304947 -51.71440985 27.20190526 -48.74567556 23.39272523 C-34.18238838 4.93644083 -23.55941191 -0.83535313 0 0 Z " fill="#040403" transform="translate(790.7456755638123,630.6072747707367)"/>
<path d="M0 0 C5.28 0 10.56 0 16 0 C16 244.2 16 488.4 16 740 C10.72 740 5.44 740 0 740 C0 495.8 0 251.6 0 0 Z " fill="#070606" transform="translate(276,216)"/>
<path d="M0 0 C4.62 0 9.24 0 14 0 C14 244.86 14 489.72 14 742 C9.38 742 4.76 742 0 742 C0 497.14 0 252.28 0 0 Z " fill="#0C0B0A" transform="translate(650,216)"/>
<path d="M0 0 C4.29 0 8.58 0 13 0 C13 244.86 13 489.72 13 742 C8.71 742 4.42 742 0 742 C0 497.14 0 252.28 0 0 Z " fill="#030202" transform="translate(991,216)"/>
<path d="M0 0 C3.4375 1.625 3.4375 1.625 6 4 C6.94875 4.825 7.8975 5.65 8.875 6.5 C11.8771221 10.30851735 11.62998765 14.48527727 11.421875 19.15625 C10.85116455 23.00326118 9.6322198 25.15435697 7 28 C6.1403161 28.56483715 5.28063221 29.1296743 4.39489728 29.71162772 C1.71095009 31.83536306 1.71095009 31.83536306 1.37259549 35.21549439 C1.37145633 36.50198687 1.37031717 37.78847935 1.36914349 39.11395645 C1.36168589 39.83444227 1.3542283 40.55492809 1.34654471 41.29724681 C1.327553 43.72458045 1.34432014 46.15036407 1.36076355 48.57769775 C1.35445533 50.3300743 1.3459546 52.08244411 1.33544332 53.83480048 C1.31287437 58.66018413 1.3215261 63.4850913 1.3351289 68.31049013 C1.34436868 73.51023835 1.32486393 78.70988644 1.30880737 83.90960693 C1.28493239 92.92177171 1.27936743 101.9337997 1.28615379 110.94599152 C1.29593944 123.97616051 1.27824286 137.00617745 1.25378648 150.03632185 C1.21485873 171.17558509 1.19823169 192.31480495 1.19555664 213.45410156 C1.19291012 233.99188462 1.17980571 254.52961698 1.15258789 275.06738281 C1.15091451 276.33281804 1.14924113 277.59825327 1.14751705 278.90203503 C1.13905773 285.25019894 1.13039229 291.59836256 1.12162435 297.94652605 C1.04912457 350.63100834 1.01278614 403.31547172 1 456 C1.76699219 456.28359375 2.53398438 456.5671875 3.32421875 456.859375 C7.10120818 458.46942013 9.34056391 460.27802594 11 464 C11.99417255 469.7425631 12.45757418 475.40961617 9.52734375 480.6171875 C6.33641297 484.31622828 3.10390509 487.70431604 -1.890625 488.40625 C-12.07632824 488.69050218 -12.07632824 488.69050218 -16.125 485.25 C-17.6328125 483.703125 -17.6328125 483.703125 -19 482 C-19.54269531 481.41347656 -20.08539062 480.82695313 -20.64453125 480.22265625 C-23.55584892 475.44876648 -22.75950409 469.3529848 -22 464 C-20.52411833 460.97659191 -18.89075708 458.76362703 -16 457 C-14.68 457 -13.36 457 -12 457 C-11.94446046 402.97662639 -11.93085823 348.95338259 -11.97365963 294.92999243 C-11.97867439 288.55497238 -11.9833412 282.17995211 -11.98779297 275.80493164 C-11.98913117 273.90116898 -11.98913117 273.90116898 -11.9904964 271.95894647 C-12.00411981 251.39684595 -11.98954369 230.83485691 -11.96458304 210.27277117 C-11.9396057 189.18099751 -11.94484693 168.08938822 -11.97825909 146.99762541 C-11.99792755 133.9782096 -11.99390264 120.95924064 -11.95976371 107.9398529 C-11.93862295 99.01723113 -11.94678116 90.09493889 -11.97815877 81.17234837 C-11.99540363 76.02093116 -11.99955824 70.87036257 -11.96898079 65.71898842 C-11.94127722 61.00381235 -11.95031574 56.29019495 -11.98874104 51.57510728 C-11.99613545 49.86840245 -11.98997522 48.16157457 -11.96897972 46.45498287 C-11.58362768 37.52719864 -11.58362768 37.52719864 -14.77734375 29.50872147 C-16.76804963 27.77412368 -18.7851686 26.42316357 -21 25 C-23.97982138 20.53026793 -23.60816742 16.24075136 -23 11 C-17.99370095 0.80198341 -10.53291615 -0.98012719 0 0 Z " fill="#050404" transform="translate(603,276)"/>
<path d="M0 0 C2.6875 1.9375 2.6875 1.9375 3.73828316 3.62679386 C5.19182428 5.92776872 6.46693992 7.3411247 8.6875 8.9375 C13.62806017 10.00784307 18.56624294 9.88188691 23.59716797 9.82397461 C25.12514554 9.83186762 26.65310987 9.84283152 28.18104553 9.85662842 C32.31936574 9.8853216 36.45655311 9.87113789 40.59487295 9.84918666 C44.92312861 9.83354202 49.25116293 9.85742327 53.57937622 9.87709045 C61.77102059 9.90831822 69.96224583 9.90406003 78.15391648 9.88701588 C87.48165437 9.86933847 96.80916791 9.89127649 106.13687301 9.91652286 C125.32049837 9.96755875 144.50384138 9.96890825 163.6875 9.9375 C163.9659375 9.16019531 164.244375 8.38289062 164.53125 7.58203125 C166.19708003 3.77200783 167.95489483 2.73714892 171.6875 0.9375 C178.08174327 -0.21731317 182.65734337 0.8419452 187.99609375 4.453125 C190.84883465 6.95668515 192.53951361 8.73951493 193.015625 12.59375 C192.98984375 13.5321875 192.9640625 14.470625 192.9375 15.4375 C192.92203125 16.3759375 192.9065625 17.314375 192.890625 18.28125 C192.43996174 24.17453879 192.43996174 24.17453879 190.0078125 26.640625 C184.72760517 30.36119813 180.70271928 31.77512114 174.2109375 31.40234375 C170.62456678 30.74169651 168.38240853 29.35600766 165.6875 26.9375 C164.6975 25.4525 164.6975 25.4525 163.6875 23.9375 C160.88252868 23.47218819 160.88252868 23.47218819 157.52462769 23.53877258 C156.20927032 23.52623444 154.89391296 23.51369629 153.53869629 23.5007782 C152.07250952 23.50195239 150.60632296 23.5034116 149.14013672 23.50512695 C147.60290739 23.49611513 146.06568528 23.48578935 144.5284729 23.47424316 C140.34688774 23.44657869 136.16543856 23.43737591 131.98377371 23.43138909 C127.61682297 23.42202988 123.24997481 23.39582861 118.88308716 23.37138367 C110.61000406 23.3276472 102.33694078 23.29914422 94.06377709 23.27606028 C84.64668062 23.24904682 75.22968697 23.20513303 65.81266379 23.15977156 C46.4376634 23.06682297 27.06263583 22.99518912 7.6875 22.9375 C7.39093506 23.56309814 7.09437012 24.18869629 6.78881836 24.83325195 C5.56031309 27.18051131 4.27329686 28.43239252 2.25 30.125 C1.65316406 30.63417969 1.05632813 31.14335938 0.44140625 31.66796875 C-3.38755269 34.43948692 -7.76611146 34.54758523 -12.3125 33.9375 C-17.44532952 31.9402498 -22.0128077 28.68702955 -24.39453125 23.6484375 C-26.34922269 17.87585938 -26.30850183 11.96639263 -23.625 6.5 C-16.79304484 -1.07054491 -9.89820144 -3.1748948 0 0 Z " fill="#060505" transform="translate(732.3125,521.0625)"/>
<path d="M0 0 C3.36522864 1.30766711 5.45954565 3.45954565 8 6 C8 6.99 8 7.98 8 9 C60.14 9 112.28 9 166 9 C166.66 7.35 167.32 5.7 168 4 C171.8760842 0.1239158 174.98957072 -0.33706844 180.4375 -0.5625 C186.61913052 -0.37197029 189.59330095 0.6912276 194 5 C196.74393062 9.44609775 196.64234635 13.92546381 196 19 C193.66907123 23.84115976 190.85901474 26.70301121 186 29 C180.62175136 29.78549682 176.3968614 29.6984307 171.5 27.25 C169 25 169 25 167.74119091 22.89181137 C166.09655419 20.72211314 166.09655419 20.72211314 163.16331196 20.49219131 C162.00093101 20.48850414 160.83855005 20.48481697 159.64094543 20.48101807 C158.99318089 20.47351681 158.34541634 20.46601556 157.67802256 20.458287 C155.50353067 20.4379575 153.33007631 20.44612191 151.15551758 20.45410156 C149.59843409 20.44536932 148.04135959 20.43488476 146.48429871 20.42277527 C142.2531353 20.39485154 138.02226377 20.39151198 133.79102159 20.39249516 C129.37067983 20.3893715 124.9504706 20.36376477 120.53019714 20.34051514 C112.15796417 20.2999095 103.78580916 20.27960374 95.41349286 20.26654124 C85.88270021 20.25068661 76.35204056 20.21227752 66.82132494 20.17194796 C47.21426046 20.08948661 27.60720215 20.0354335 8 20 C7.71898437 20.61488281 7.43796875 21.22976563 7.1484375 21.86328125 C5.35541147 25.19928547 2.6805255 27.30461014 -0.8125 28.75 C-9.55680833 29.74934952 -9.55680833 29.74934952 -14.25 27.3125 C-19.23160508 23.123423 -21.61968004 19.80485969 -22.5 13.3125 C-22.48197154 8.44481574 -19.95800617 5.96407645 -16.7265625 2.56640625 C-12.20275629 -1.53777088 -5.74688801 -0.52371397 0 0 Z " fill="#040303" transform="translate(737,594)"/>
<path d="M0 0 C0.33 0 0.66 0 1 0 C1.1540512 56.40770267 1.29733859 112.815426 1.38108826 169.22328186 C1.38233077 170.05801371 1.38357328 170.89274556 1.38485345 171.75277231 C1.41178905 189.89334504 1.43672077 208.03392001 1.45958797 226.17449832 C1.47081408 235.07051565 1.48248306 243.96653238 1.49438477 252.86254883 C1.49615001 254.19044616 1.49615001 254.19044616 1.49795092 255.54516969 C1.53630935 284.24391999 1.60391571 312.9425109 1.68667499 341.64116462 C1.77156007 371.13052332 1.82696703 400.61979381 1.84523491 430.10927262 C1.84782834 434.27357356 1.85075907 438.4378742 1.85389519 442.60217476 C1.85450199 443.42177619 1.8551088 444.24137761 1.855734 445.08581545 C1.8663733 458.28407708 1.90812582 471.48206609 1.96148831 484.68021651 C2.01446088 497.94592508 2.03471515 511.21136314 2.0215124 524.4771738 C2.01466224 532.36078551 2.03295711 540.24340784 2.08717789 548.12684106 C2.12488828 554.01133156 2.11565995 559.89513682 2.08809005 565.77970452 C2.08427905 568.16211001 2.09576927 570.5445983 2.12394864 572.92684018 C2.33324501 591.70971759 2.33324501 591.70971759 -1.07601368 596.44629014 C-3.27704297 598.67979153 -5.30668824 600.41076521 -8 602 C-8.33 601.34 -8.66 600.68 -9 600 C-8.04578192 598.85073734 -7.08647955 597.70569459 -6.125 596.5625 C-5.59132813 595.92441406 -5.05765625 595.28632812 -4.5078125 594.62890625 C-3 593 -3 593 -1 592 C-0.67 396.64 -0.34 201.28 0 0 Z " fill="#201F1C" transform="translate(682,289)"/>
<path d="M0 0 C0.33 0 0.66 0 1 0 C1 174.57 1 349.14 1 529 C-2 525 -2 525 -3 522 C-2.34 521.67 -1.68 521.34 -1 521 C-0.67 349.07 -0.34 177.14 0 0 Z " fill="#1A1916" transform="translate(572,216)"/>
<path d="M0 0 C0.66 0 1.32 0 2 0 C2 55.11 2 110.22 2 167 C1.67 167 1.34 167 1 167 C0.67 144.23 0.34 121.46 0 98 C-0.33 98 -0.66 98 -1 98 C-1.85930686 86.49321025 -2.16279212 75.05228355 -2.16796875 63.515625 C-2.17119215 61.7992958 -2.17455698 60.08296685 -2.17805481 58.36663818 C-2.18398106 54.80691895 -2.18590089 51.2472238 -2.18530273 47.6875 C-2.18520008 43.12805125 -2.19898671 38.56875461 -2.21607494 34.00934219 C-2.22717395 30.48178391 -2.22922279 26.95426311 -2.22869301 23.42668915 C-2.2298711 21.74417332 -2.23428329 20.06165645 -2.24202538 18.37915802 C-2.2518069 16.0394441 -2.24895747 13.70007078 -2.24291992 11.36035156 C-2.24853943 10.67051178 -2.25415894 9.980672 -2.25994873 9.26992798 C-2.23633303 5.67404807 -1.95774332 3.06136079 0 0 Z " fill="#CBC6C3" transform="translate(924,302)"/>
<path d="M0 0 C2.6875 2.1875 2.6875 2.1875 4.6875 5.1875 C5.16114652 10.00290624 5.17949653 12.23864955 2.9375 16.5625 C-0.26507743 20.29884034 -1.81680385 21.02131154 -6.6875 21.5625 C-10.98330432 21.11810645 -12.99033589 19.89158706 -16.3125 17.1875 C-18.78491989 13.47887017 -18.97918695 10.48844385 -18.3125 6.1875 C-16.68859951 3.05569191 -15.30983974 0.94410256 -12.5 -1.1875 C-7.71191029 -2.55552563 -4.38237247 -2.39790192 0 0 Z " fill="#C6C3BA" transform="translate(1143.3125,1221.8125)"/>
<path d="M0 0 C0.625 1.875 0.625 1.875 1 4 C0.34 4.66 -0.32 5.32 -1 6 C-1.30668973 8.05056012 -1.30668973 8.05056012 -1.26171303 10.44716835 C-1.26917852 11.38818386 -1.27664401 12.32919936 -1.28433573 13.29873049 C-1.282401 14.3395699 -1.28046626 15.38040931 -1.2784729 16.45278931 C-1.2842653 17.55297374 -1.2900577 18.65315818 -1.29602563 19.78668153 C-1.3131217 23.49795352 -1.31591038 27.20910188 -1.31884766 30.92041016 C-1.32813922 33.57092508 -1.33821881 36.22142602 -1.34928894 38.87193298 C-1.37159577 44.5910044 -1.38658842 50.31005781 -1.39665604 56.02916336 C-1.41122274 64.29808967 -1.43675383 72.56695329 -1.46498732 80.83584289 C-1.51049194 94.2505714 -1.54709154 107.66530891 -1.578125 121.08007812 C-1.60829554 134.11362287 -1.6426389 147.14714555 -1.68261719 160.18066406 C-1.68630951 161.38512861 -1.68630951 161.38512861 -1.69007643 162.61392577 C-1.70245074 166.64209988 -1.71490733 170.67027373 -1.72740483 174.69844747 C-1.83102756 208.13226836 -1.92021265 241.56611376 -2 275 C-2.33 275 -2.66 275 -3 275 C-3.06861906 240.39988543 -3.12150483 205.79978635 -3.15319599 171.19961847 C-3.15694825 167.11769801 -3.1608312 163.03577768 -3.16479492 158.95385742 C-3.16597532 157.73486699 -3.16597532 157.73486699 -3.16717956 156.49125049 C-3.18024479 143.320942 -3.20390476 130.15067266 -3.23145839 116.98038741 C-3.25948156 103.47333715 -3.27616971 89.96630743 -3.28226548 76.45922929 C-3.28638836 68.12003445 -3.29942482 59.78095027 -3.3237494 51.44178949 C-3.3395685 45.72862091 -3.34440908 40.01550982 -3.34050413 34.30232092 C-3.33857658 31.0027032 -3.34322019 27.70332105 -3.35761642 24.40372849 C-3.37244458 20.831307 -3.36898883 17.25936702 -3.36076355 13.68693542 C-3.36950207 12.63733601 -3.3782406 11.5877366 -3.38724393 10.50633115 C-3.38127078 9.5528744 -3.37529764 8.59941766 -3.36914349 7.61706829 C-3.37028265 6.79193601 -3.37142181 5.96680374 -3.37259549 5.11666745 C-2.91674778 2.52705475 -2.00039049 1.64079674 0 0 Z " fill="#282725" transform="translate(714,683)"/>
<path d="M0 0 C2.6875 2.1875 2.6875 2.1875 4.6875 5.1875 C5.16114652 10.00290624 5.17949653 12.23864955 2.9375 16.5625 C-0.26507743 20.29884034 -1.81680385 21.02131154 -6.6875 21.5625 C-10.98330432 21.11810645 -12.99033589 19.89158706 -16.3125 17.1875 C-18.78491989 13.47887017 -18.97918695 10.48844385 -18.3125 6.1875 C-16.68859951 3.05569191 -15.30983974 0.94410256 -12.5 -1.1875 C-7.71191029 -2.55552563 -4.38237247 -2.39790192 0 0 Z M-15.3125 6.1875 C-16.09777701 10.58505124 -15.80308836 12.42787932 -13.375 16.1875 C-9.51182045 18.71039277 -7.51088694 18.3510031 -3.10546875 17.58203125 C-2.51378906 17.45183594 -1.92210937 17.32164063 -1.3125 17.1875 C-1.3125 16.5275 -1.3125 15.8675 -1.3125 15.1875 C-0.6525 15.1875 0.0075 15.1875 0.6875 15.1875 C1.92618699 10.18613167 1.92618699 10.18613167 0.88671875 5.3203125 C-1.38386623 2.22876683 -3.07421354 1.23430627 -6.8125 0.5 C-11.24274874 1.37022743 -12.72620196 2.50398461 -15.3125 6.1875 Z " fill="#E0DED9" transform="translate(1143.3125,1221.8125)"/>
<path d="M0 0 C0.66 0 1.32 0 2 0 C2 55.11 2 110.22 2 167 C1.67 167 1.34 167 1 167 C0.505 93.74 0.505 93.74 0 19 C-0.33 19 -0.66 19 -1 19 C-1.02690104 16.20826945 -1.04679053 13.41679652 -1.0625 10.625 C-1.07087891 9.8309375 -1.07925781 9.036875 -1.08789062 8.21875 C-1.11328125 2.2265625 -1.11328125 2.2265625 0 0 Z " fill="#D2CFCC" transform="translate(924,302)"/>
<path d="M0 0 C0.33 0 0.66 0 1 0 C1 46.53 1 93.06 1 141 C-1.40785992 137.7895201 -2.68197635 135.64991166 -4 132 C-3.34 131.67 -2.68 131.34 -2 131 C-0.99383234 127.98149702 -0.86342731 125.93704103 -0.84178162 122.77986145 C-0.8319928 121.69872574 -0.82220398 120.61759003 -0.81211853 119.50369263 C-0.80636307 118.31758392 -0.8006076 117.13147522 -0.79467773 115.90942383 C-0.78477814 114.66052872 -0.77487854 113.41163361 -0.76467896 112.12489319 C-0.7384828 108.69956533 -0.71662422 105.27426089 -0.69667697 101.84889436 C-0.67481228 98.26941051 -0.64742595 94.68996906 -0.62062073 91.11051941 C-0.57070038 84.33202637 -0.52575911 77.55350979 -0.48259836 70.77497071 C-0.43322037 63.05797045 -0.37830432 55.34101272 -0.32291877 47.6240536 C-0.20910882 31.74940837 -0.10226763 15.87472403 0 0 Z " fill="#BBB8B5" transform="translate(618,744)"/>
<path d="M0 0 C1.32 0 2.64 0 4 0 C5.32 2.64 6.64 5.28 8 8 C8.47179688 7.13375 8.47179688 7.13375 8.953125 6.25 C9.59507813 5.13625 9.59507813 5.13625 10.25 4 C10.66765625 3.2575 11.0853125 2.515 11.515625 1.75 C12.00546875 1.1725 12.4953125 0.595 13 0 C14.32 0 15.64 0 17 0 C17 4.95 17 9.9 17 15 C16.01 15 15.02 15 14 15 C13.67 12.03 13.34 9.06 13 6 C11.515 8.475 11.515 8.475 10 11 C8.125 10.6875 8.125 10.6875 6 10 C5.34 9.01 4.68 8.02 4 7 C3.67 9.64 3.34 12.28 3 15 C2.01 15 1.02 15 0 15 C0 10.05 0 5.1 0 0 Z " fill="#DEDCD7" transform="translate(1156,1224)"/>
<path d="M0 0 C2.35546875 0.19921875 2.35546875 0.19921875 5 1 C6.36328125 3.14453125 6.36328125 3.14453125 7.3125 5.8125 C7.63863281 6.68519531 7.96476562 7.55789063 8.30078125 8.45703125 C9 11 9 11 9 15 C8.01 15 7.02 15 6 15 C6 13.68 6 12.36 6 11 C3.36 11 0.72 11 -2 11 C-2 12.32 -2 13.64 -2 15 C-2.99 15 -3.98 15 -5 15 C-1.92482916 4.44191344 -1.92482916 4.44191344 0 0 Z " fill="#E1DFDA" transform="translate(1220,1224)"/>
<path d="M0 0 C3 0.25 3 0.25 5 2.25 C5.125 4.875 5.125 4.875 5 7.25 C2.69 7.58 0.38 7.91 -2 8.25 C0.97 8.745 0.97 8.745 4 9.25 C4 9.91 4 10.57 4 11.25 C1.36 11.25 -1.28 11.25 -4 11.25 C-5.50662097 8.23675805 -5.17770373 5.56713623 -5 2.25 C-3 0.25 -3 0.25 0 0 Z " fill="#E0DDD9" transform="translate(1181,1227.75)"/>
<path d="M0 0 C0.33 0.99 0.66 1.98 1 3 C-0.75 5.6875 -0.75 5.6875 -3 8 C-3.99 8 -4.98 8 -6 8 C-6.21398437 8.54140625 -6.42796875 9.0828125 -6.6484375 9.640625 C-8.48077943 12.8392797 -10.99796606 15.20964484 -13.625 17.75 C-14.140625 18.25660156 -14.65625 18.76320313 -15.1875 19.28515625 C-16.45383339 20.52803902 -17.7263144 21.76465276 -19 23 C-19.66 22.67 -20.32 22.34 -21 22 C-16.78671644 17.20124776 -12.57469128 12.460324 -8 8 C-6.56115087 6.5638504 -5.1237418 5.1262571 -3.6875 3.6875 C-1.84375 1.84375 -1.84375 1.84375 0 0 Z " fill="#22201E" transform="translate(750,646)"/>
<path d="M0 0 C2.875 -0.125 2.875 -0.125 6 0 C8 2 8 2 8.1953125 4.1640625 C8.17210937 4.97617188 8.14890625 5.78828125 8.125 6.625 C8.10695313 7.44226562 8.08890625 8.25953125 8.0703125 9.1015625 C8.03550781 10.04128906 8.03550781 10.04128906 8 11 C7.01 10.67 6.02 10.34 5 10 C5.33 9.01 5.66 8.02 6 7 C4.35 7 2.7 7 1 7 C1 7.66 1 8.32 1 9 C1.99 9.66 2.98 10.32 4 11 C2.35 11 0.7 11 -1 11 C-1.625 9.125 -1.625 9.125 -2 7 C0 5 0 5 3.125 4.875 C4.07375 4.91625 5.0225 4.9575 6 5 C5.67 4.34 5.34 3.68 5 3 C3.02 3 1.04 3 -1 3 C-0.67 2.01 -0.34 1.02 0 0 Z " fill="#E2E0DB" transform="translate(1200,1228)"/>
<path d="M0 0 C2.475 0.495 2.475 0.495 5 1 C4.93999894 2.6260287 4.8512115 4.25101549 4.75 5.875 C4.70359375 6.77992188 4.6571875 7.68484375 4.609375 8.6171875 C4.40828125 9.40351562 4.2071875 10.18984375 4 11 C2.02 11.99 2.02 11.99 0 13 C0 8.71 0 4.42 0 0 Z " fill="#CCC9C4" transform="translate(945,873)"/>
<path d="M0 0 C0.66 0 1.32 0 2 0 C2 0.99 2 1.98 2 3 C3.32 3 4.64 3 6 3 C6 3.66 6 4.32 6 5 C4.68 5 3.36 5 2 5 C2 7.31 2 9.62 2 12 C3.32 12 4.64 12 6 12 C6 12.66 6 13.32 6 14 C4.33388095 14.042721 2.66617115 14.04063832 1 14 C0 13 0 13 -0.09765625 11.15234375 C-0.06510417 9.1015625 -0.03255208 7.05078125 0 5 C-0.66 5 -1.32 5 -2 5 C-2 4.34 -2 3.68 -2 3 C-1.34 3 -0.68 3 0 3 C0 2.01 0 1.02 0 0 Z " fill="#E0DDD8" transform="translate(1190,1225)"/>
<path d="M0 0 C0.99 0 1.98 0 3 0 C3 4.95 3 9.9 3 15 C2.01 15 1.02 15 0 15 C0 10.05 0 5.1 0 0 Z " fill="#DDDBD5" transform="translate(1232,1224)"/>
<path d="M0 0 C0.33 0 0.66 0 1 0 C1 6.93 1 13.86 1 21 C-1.40785992 17.7895201 -2.68197635 15.64991166 -4 12 C-3.34 11.67 -2.68 11.34 -2 11 C-1.30906104 8.42048126 -1.30906104 8.42048126 -0.875 5.4375 C-0.70742188 4.42558594 -0.53984375 3.41367187 -0.3671875 2.37109375 C-0.24601563 1.58863281 -0.12484375 0.80617188 0 0 Z " fill="#B2AFAD" transform="translate(618,864)"/>
<path d="M0 0 C0.66 0.33 1.32 0.66 2 1 C2.73075648 3.3140622 3.40138258 5.64828869 4 8 C1.69 8.33 -0.62 8.66 -3 9 C-2.25 2.25 -2.25 2.25 0 0 Z " fill="#DCDAD5" transform="translate(1223,1224)"/>
<path d="M0 0 C2.31 0 4.62 0 7 0 C7 1.65 7 3.3 7 5 C4.36 5 1.72 5 -1 5 C-0.67 3.35 -0.34 1.7 0 0 Z " fill="#D6D3CD" transform="translate(1179,1230)"/>
<path d="M0 0 C0 4.51238421 -2.35523578 7.44743833 -5 11 C-7.8125 13.5 -7.8125 13.5 -10 15 C-10.66 14.67 -11.32 14.34 -12 14 C-11.38511719 13.32453125 -10.77023437 12.6490625 -10.13671875 11.953125 C-9.32847656 11.06109375 -8.52023437 10.1690625 -7.6875 9.25 C-6.88699219 8.36828125 -6.08648437 7.4865625 -5.26171875 6.578125 C-3.39083089 4.44550672 -1.65915714 2.29812057 0 0 Z " fill="#ACABA6" transform="translate(376,749)"/>
<path d="M0 0 C0.66 0.33 1.32 0.66 2 1 C0.88321917 2.6721852 -0.24366352 4.33762803 -1.375 6 C-2.00148438 6.928125 -2.62796875 7.85625 -3.2734375 8.8125 C-3.84320312 9.534375 -4.41296875 10.25625 -5 11 C-5.66 11 -6.32 11 -7 11 C-5.72278474 6.00724943 -3.82669043 3.42388092 0 0 Z " fill="#23221F" transform="translate(714,522)"/>
<path d="M0 0 C0.6875 1.625 0.6875 1.625 1 4 C-0.4375 7.25 -0.4375 7.25 -2 10 C-4.475 9.01 -4.475 9.01 -7 8 C-6.21625 7.236875 -5.4325 6.47375 -4.625 5.6875 C-1.92742283 3.09108195 -1.92742283 3.09108195 0 0 Z " fill="#AEABA6" transform="translate(612,300)"/>
<path d="M0 0 C0.94746094 -0.00773438 1.89492188 -0.01546875 2.87109375 -0.0234375 C5.91441571 0.42709783 7.29511099 1.34882258 9.5625 3.375 C8.84964844 3.29121094 8.13679687 3.20742188 7.40234375 3.12109375 C1.87230427 2.53310839 -2.97778471 2.28305694 -8.4375 3.375 C-5.90226699 0.1483398 -4.01541131 -0.03268992 0 0 Z " fill="#2F2C29" transform="translate(688.4375,255.625)"/>
<path d="M0 0 C3 3 3 3 3.29296875 5.04296875 C3.1953125 7.02864583 3.09765625 9.01432292 3 11 C2.01 11.33 1.02 11.66 0 12 C0 8.04 0 4.08 0 0 Z " fill="#BAB9B6" transform="translate(323,290)"/>
<path d="M0 0 C0.66 0.33 1.32 0.66 2 1 C1.04956626 2.33897583 0.08940853 3.67105427 -0.875 5 C-1.40867187 5.7425 -1.94234375 6.485 -2.4921875 7.25 C-3.23855469 8.11625 -3.23855469 8.11625 -4 9 C-4.66 9 -5.32 9 -6 9 C-4.68775452 5.06326356 -3.08089673 2.77280706 0 0 Z " fill="#22201D" transform="translate(587,278)"/>
<path d="M0 0 C1.65 0 3.3 0 5 0 C5 1.66666667 5 3.33333333 5 5 C3.02 4.34 1.04 3.68 -1 3 C-0.67 2.01 -0.34 1.02 0 0 Z " fill="#D3D1CA" transform="translate(1201,1234)"/>
<path d="M0 0 C0 3.77910478 -0.99703962 4.46106101 -3.5 7.1875 C-4.1496875 7.90292969 -4.799375 8.61835937 -5.46875 9.35546875 C-5.9740625 9.89816406 -6.479375 10.44085937 -7 11 C-7.66 10.67 -8.32 10.34 -9 10 C-7.38405168 7.95880212 -5.7143618 5.95927063 -4 4 C-3.34 4 -2.68 4 -2 4 C-1.34 2.68 -0.68 1.36 0 0 Z " fill="#9A9995" transform="translate(753,668)"/>
<path d="M0 0 C0.33 0 0.66 0 1 0 C1 5.94 1 11.88 1 18 C0.01 18 -0.98 18 -2 18 C-1.505 16.515 -1.505 16.515 -1 15 C-0.77281504 12.43365139 -0.58391816 9.88321893 -0.4375 7.3125 C-0.39431641 6.61060547 -0.35113281 5.90871094 -0.30664062 5.18554688 C-0.2008264 3.45724794 -0.09993419 1.7286489 0 0 Z " fill="#B7B6B1" transform="translate(618,940)"/>
<path d="M0 0 C0.33 0.99 0.66 1.98 1 3 C-0.9375 5.6875 -0.9375 5.6875 -3 8 C-4.32 7.67 -5.64 7.34 -7 7 C-4.69 4.69 -2.38 2.38 0 0 Z " fill="#2D2C29" transform="translate(750,646)"/>
<path d="M0 0 C2.64465038 3.1254959 3.84414715 6.08788267 5 10 C4.01 9.67 3.02 9.34 2 9 C2 8.34 2 7.68 2 7 C1.01 6.67 0.02 6.34 -1 6 C-0.67 4.02 -0.34 2.04 0 0 Z " fill="#A4A19D" transform="translate(445,549)"/>
<path d="M0 0 C0.33 0.99 0.66 1.98 1 3 C0.01 4.485 0.01 4.485 -1 6 C-1.66 6 -2.32 6 -3 6 C-3.33 7.32 -3.66 8.64 -4 10 C-4.66 10 -5.32 10 -6 10 C-4.6302836 6.00499382 -2.74277578 3.19990508 0 0 Z " fill="#292724" transform="translate(305,862)"/>
<path d="M0 0 C2.4375 0.6875 2.4375 0.6875 5 2 C5.8125 4.625 5.8125 4.625 6 7 C5.01 7.495 5.01 7.495 4 8 C2.35 5.69 0.7 3.38 -1 1 C-0.67 0.67 -0.34 0.34 0 0 Z " fill="#AEABA6" transform="translate(735,521)"/>
<path d="M0 0 C0.33 0.99 0.66 1.98 1 3 C-1.3125 5.5 -1.3125 5.5 -4 8 C-4.99 8 -5.98 8 -7 8 C-4.69 5.36 -2.38 2.72 0 0 Z " fill="#252420" transform="translate(370,735)"/>
<path d="M0 0 C0.66 0.33 1.32 0.66 2 1 C1.3125 3.375 1.3125 3.375 0 6 C-2.625 7.3125 -2.625 7.3125 -5 8 C-4.45773019 4.20411134 -2.79872437 2.52788007 0 0 Z " fill="#B3B1AC" transform="translate(759,662)"/>
<path d="M0 0 C1.15957207 3.47871621 0.77456651 4.34219645 -0.4375 7.6875 C-0.72496094 8.49574219 -1.01242187 9.30398438 -1.30859375 10.13671875 C-1.65083984 11.05904297 -1.65083984 11.05904297 -2 12 C-2.33 12 -2.66 12 -3 12 C-3.36923077 4.61538462 -3.36923077 4.61538462 -1.5 1.5 C-1.005 1.005 -0.51 0.51 0 0 Z " fill="#282724" transform="translate(718,599)"/>
<path d="M0 0 C0.66 0.33 1.32 0.66 2 1 C-0.64 3.64 -3.28 6.28 -6 9 C-6.33 8.34 -6.66 7.68 -7 7 C-4.66666667 4.66666667 -2.33333333 2.33333333 0 0 Z " fill="#201E1B" transform="translate(958,867)"/>
<path d="M0 0 C0.66 0.33 1.32 0.66 2 1 C-2 7.57142857 -2 7.57142857 -6 9 C-4.68775452 5.06326356 -3.08089673 2.77280706 0 0 Z " fill="#292825" transform="translate(587,733)"/>
<path d="M0 0 C0.66 0.33 1.32 0.66 2 1 C0.1875 4 0.1875 4 -2 7 C-2.99 7 -3.98 7 -5 7 C-4.34 5.68 -3.68 4.36 -3 3 C-2.34 3 -1.68 3 -1 3 C-0.67 2.01 -0.34 1.02 0 0 Z " fill="#2A2926" transform="translate(902,475)"/>
<path d="M0 0 C2 2 2 2 2 6 C0.68 6 -0.64 6 -2 6 C-1.125 1.125 -1.125 1.125 0 0 Z " fill="#C9C5BE" transform="translate(1222,1227)"/>
<path d="M0 0 C1.5625 1.8125 1.5625 1.8125 3 4 C2.67 4.99 2.34 5.98 2 7 C1.01 6.34 0.02 5.68 -1 5 C-0.67 3.35 -0.34 1.7 0 0 Z " fill="#AFADA9" transform="translate(481,626)"/>
<path d="M0 0 C0.99 0.495 0.99 0.495 2 1 C2.73075648 3.3140622 3.40138258 5.64828869 4 8 C3.01 7.67 2.02 7.34 1 7 C0.67 4.69 0.34 2.38 0 0 Z " fill="#292724" transform="translate(426,396)"/>
</svg>
